<svg height="50" viewBox="0 0 55 50" width="55" xmlns="http://www.w3.org/2000/svg"><g opacity=".3"><g transform="translate(0 37.674107)"><path d="m3.8860034 3.86440468c-1.88928473 0-3.83197472 1.48270967-3.83197472 4.07798905 0 2.37259667 1.70807895 4.04842987 3.83197472 4.04842987 1.75317049 0 2.5345323-1.1524746 2.5345323-1.1524746v.5023609c0 .2374408.22922221.5023608.51294171.5023608h1.26726615v-7.80135935h-1.78020786v.9899475s-.7879085-1.16725417-2.5345323-1.16725417zm.31711149 1.59521727c1.55528243 0 2.3711118 1.3395949 2.3711118 2.48219134 0 1.27266756-.96864235 2.48133141-2.36781375 2.48133141-1.16961993 0-2.34123735-.92772271-2.34123735-2.49812639 0-1.41756663 1.00825179-2.46539636 2.3379393-2.46539636z"/><path d="m10.6749288 11.8430761c-.2735071 0-.5129417-.1921293-.5129417-.5023609v-7.29899847h1.7802079v.965408c.4033983-.59383306 1.1915044-1.14509016 2.4011838-1.14509016 1.977152 0 3.0299631 1.54358545 3.0299631 2.98699217v4.99404936h-1.2370954c-.3243826 0-.5431125-.265952-.5431125-.5319093v-4.07798365c0-.80008086-.5005288-1.77175541-1.6581144-1.77175541-1.2490693 0-1.9928246 1.15610767-1.9928246 2.24456246v4.1370859z"/><path d="m22.5630951 3.86440468c-1.8892793 0-3.8319693 1.48270967-3.8319693 4.07798905 0 2.37259667 1.708079 4.04842987 3.8319693 4.04842987 1.7531705 0 2.5345378-1.1524746 2.5345378-1.1524746v.5023609c0 .2374408.2292222.5023608.5129417.5023608h1.2672661v-11.70203634h-1.7802078v4.89061911s-.787914-1.16724879-2.5345378-1.16724879zm.317117 1.59521727c1.5552824 0 2.3711117 1.3395949 2.3711117 2.48219134 0 1.27266756-.9686478 2.48133141-2.3678137 2.48133141-1.1696199 0-2.3412374-.92772271-2.3412374-2.49812639 0-1.41757201 1.0082464-2.46539636 2.3379394-2.46539636z"/><path d="m29.352026 11.8430761c-.2735071 0-.5129418-.1921293-.5129418-.5023609v-7.29899847h1.7802079v1.30022746c.3064162-.7283918.9676326-1.38887811 2.1422847-1.38887811.3274611 0 .6336358.05910222.6336358.05910222v1.80258294s-.3823151-.14775288-.8448477-.14775288c-1.2490693 0-1.9310728 1.15610768-1.9310728 2.24456783v3.93150991z"/><path d="m44.1971484 11.8430761c-.2735071 0-.5129417-.1921293-.5129417-.5023609v-7.29899847h1.7802078v7.80135937z"/><path d="m50.6843495 3.86440468c-1.8892847 0-3.8319747 1.48270967-3.8319747 4.07798905 0 2.37259667 1.7080789 4.04842987 3.8319747 4.04842987 1.753165 0 2.5345296-1.1524746 2.5345296-1.1524746v.5023609c0 .2374408.2292222.5023608.5129417.5023608h1.2672661v-11.70203634h-1.7802078v4.89061911s-.7879058-1.16724879-2.5345296-1.16724879zm.3171115 1.59521727c1.5552824 0 2.3711091 1.3395949 2.3711091 2.48219134 0 1.27266756-.9686396 2.48133141-2.367811 2.48133141-1.16962 0-2.3412374-.92772271-2.3412374-2.49812639 0-1.41757201 1.0082518-2.46539636 2.3379393-2.46539636z"/><ellipse cx="44.560298" cy="1.205912" rx="1.177435" ry="1.153147"/><path d="m38.0900618 3.86180885c-1.9785898 0-4.1523842 1.446454-4.1523842 4.06672968 0 2.38775247 1.851563 4.06257527 4.148082 4.06257527 2.8302257 0 4.212199-2.22827265 4.212199-4.04745172 0-2.23231958-1.7795384-4.08185323-4.2078968-4.08185323zm.0064754 1.62817305c1.3682488 0 2.3888532 1.08002236 2.3888532 2.44346346 0 1.38708843-1.0834209 2.45743684-2.3847869 2.45743684-1.2080496 0-2.3823723-.96282288-2.3823723-2.43411734 0-1.49581783 1.1169006-2.46678296 2.378306-2.46678296z"/></g><path d="m40.9177018 10.0145856 4.5623759-7.9440301c.2574576-.44534512.101787-1.01105791-.3352941-1.2698414-.4370769-.25877931-1.005878-.10832652-1.257347.3370207l-4.6222503 8.04634122c-3.5265627-1.61889908-7.4961869-2.52162839-11.7651863-2.52162839-4.2689976 0-8.2386238.90272931-11.7651865 2.52162839l-4.6222504-8.04634122c-.2574576-.44534722-.82027-.59580001-1.26333562-.3370207-.44306766.25878349-.59275173.82449628-.33529405 1.2698414l4.56237797 7.9440301c-7.86740624 4.2849649-13.19616893 12.2891757-14.0763114 21.6595215h55c-.8801445-9.3703458-6.2089089-17.3745566-14.0822982-21.6595215zm-26.045071 13.8960357c-1.2753109 0-2.3051375-1.0411493-2.3051375-2.3170061 0-1.2818805 1.0358153-2.3170082 2.3051375-2.3170082 1.275311 0 2.3051657 1.0411473 2.3051657 2.3170082.0059855 1.2758568-1.0298547 2.3170061-2.3051657 2.3170061zm25.2487494 0c-1.2753088 0-2.3051416-1.0411493-2.3051416-2.3170061 0-1.2818805 1.0358173-2.3170082 2.3051416-2.3170082 1.2753131 0 2.3051634 1.0411473 2.3051634 2.3170082.0059649 1.2758568-1.0298503 2.3170061-2.3051634 2.3170061z"/></g></svg>