<svg height="44" viewBox="0 0 148 44" width="148" xmlns="http://www.w3.org/2000/svg" xmlns:xlink="http://www.w3.org/1999/xlink"><mask id="a" fill="#fff"><path d="m.06568047 43.7869822v-43.74319522h147.71538453v43.74319522z" fill="none"/></mask><g fill="none" fill-rule="evenodd"><path d="m142.523343 43.7869822h-137.34662702c-2.85381657 0-5.17671598-2.3294674-5.17671598-5.1810946v-33.43245565c0-2.85272189 2.32289941-5.17343195 5.17671598-5.17343195h137.34662702c2.852722 0 5.257722 2.32071006 5.257722 5.17343195v33.43245565c0 2.8516272-2.405 5.1810946-5.257722 5.1810946" fill="#a9aaa9" mask="url(#a)"/><path d="m146.72142 38.6069822c0 2.3163314-1.876272 4.1926036-4.196982 4.1926036h-137.34772202c-2.31961539 0-4.20245562-1.8762722-4.20245562-4.1926036v-33.43464492c0-2.31523669 1.88284023-4.19807692 4.20245562-4.19807692h137.34662702c2.321805 0 4.196982 1.88284023 4.196982 4.19807692v33.43464492z" fill="#0a0b09"/><g fill="#fffffe"><path d="m32.980355 21.6570414c-.0317455-3.5281361 2.8888462-5.2445858 3.0223965-5.3255917-1.6540533-2.411568-4.2177811-2.7410651-5.1186982-2.7662426-2.1532249-.2265976-4.241864 1.288432-5.3387279 1.288432-1.1187574 0-2.8089349-1.2665385-4.628284-1.2293196-2.3415089.0361243-4.534142 1.3924261-5.7360947 3.4985799-2.4805325 4.2944083-.6305325 10.6052071 1.746006 14.0764201 1.1888165 1.7000296 2.5779585 3.5981953 4.3951183 3.5314201 1.7788462-.0744378 2.4433136-1.1351775 4.5910651-1.1351775 2.1269527 0 2.7509172 1.1351775 4.6052959 1.0924852 1.9091124-.0317455 3.111065-1.7076923 4.258284-3.4230473 1.3738165-1.9496154 1.9255325-3.8685799 1.947426-3.9671006-.0448816-.0142308-3.7076627-1.4121302-3.743787-5.640858"/><path d="m29.4773964 11.281716c.9556509-1.1964793 1.6102663-2.82426038 1.4285503-4.47612428-1.3847633.06130177-3.1165384.95674556-4.1126923 2.12804733-.8823077 1.03118344-1.6704733 2.72136095-1.4668639 4.31082845 1.5555326.1160355 3.1526628-.7848817 4.1510059-1.9627515"/><path d="m54.4655325 28.4122781-1.2315088-3.8028994c-.1302663-.3897041-.3743787-1.3048521-.7356213-2.7454438h-.0426923c-.1434024.6206805-.3743787 1.5347337-.6918344 2.7454438l-1.2096153 3.8028994zm4.2582841 6.0743491h-2.4860059l-1.3617752-4.2790828h-4.7322781l-1.2971894 4.2790828h-2.4203254l4.6895858-14.567929h2.8965089z"/><path d="m68.406213 29.1905917c0-1.022426-.2298816-1.8653254-.6918343-2.5286982-.504645-.6907397-1.1811538-1.0377515-2.031716-1.0377515-.5757988 0-1.0990532.1926627-1.5664793.5736095-.4685207.3820414-.7750296.8823077-.9184319 1.5029881-.0722485.2878995-.1083728.5254438-.1083728.7115385v1.7514793c0 .7640828.2342604 1.4088462.7027811 1.9342899.4685207.5265385 1.0771597.7892604 1.8259171.7892604.8790237 0 1.56429-.3393491 2.0536095-1.015858.4893195-.6776035.7345266-1.570858.7345266-2.680858zm2.3776332-.0853846c0 1.7865089-.4827515 3.1986391-1.4482545 4.2352959-.8647929.9228106-1.9375739 1.3836686-3.2205325 1.3836686-1.382574 0-2.3765385-.4969823-2.9818935-1.4920414h-.043787v5.5335799h-2.3338462v-11.325503c0-1.1231361-.0295562-2.2758284-.0864792-3.4580769h2.0525147l.1302663 1.665h.043787c.7772189-1.2544971 1.9594675-1.8806509 3.5434615-1.8806509 1.2402663 0 2.2736391.4893195 3.1023077 1.4690532.8286687.9808284 1.2424557 2.2703551 1.2424557 3.8696746z"/><path d="m80.4881361 29.1905917c0-1.022426-.2309763-1.8653254-.6918343-2.5286982-.504645-.6907397-1.1811539-1.0377515-2.031716-1.0377515-.5768935 0-1.0990533.1926627-1.567574.5736095-.467426.3820414-.7728402.8823077-.9173372 1.5029881-.0711539.2878995-.1083728.5254438-.1083728.7115385v1.7514793c0 .7640828.2342603 1.4088462.7005917 1.9342899.4685207.5265385 1.0782544.7892604 1.8281065.7892604.8790237 0 1.5631953-.3393491 2.0525148-1.015858.4904142-.6776035.7356213-1.570858.7356213-2.680858zm2.3776331-.0853846c0 1.7865089-.4827514 3.1986391-1.4493491 4.2352959-.8636982.9228106-1.9375739 1.3836686-3.2194379 1.3836686-1.3836686 0-2.3776331-.4969823-2.9818934-1.4920414h-.043787v5.5335799h-2.3338462v-11.325503c0-1.1231361-.0295562-2.2758284-.0864793-3.4580769h2.0536095l.1291716 1.665h.043787c.7772189-1.2544971 1.9572781-1.8806509 3.5434615-1.8806509 1.2380769 0 2.2736391.4893195 3.1023077 1.4690532.827574.9808284 1.2424556 2.2703551 1.2424556 3.8696746z"/><path d="m96.3740533 30.4023964c0 1.238077-.4302071 2.2462722-1.2939054 3.0245858-.9490828.8516569-2.270355 1.2752959-3.9681952 1.2752959-1.5664793 0-2.8242604-.3021302-3.7755326-.9074852l.5407692-1.9452367c1.0246154.6195858 2.1488462.9293787 3.373787.9293787.8790237 0 1.5631953-.1981361 2.0547042-.5955029.4904142-.3962722.7334319-.9271894.7334319-1.5916569 0-.5911242-.2003254-1.0892011-.605355-1.493136-.4017456-.403935-1.0727811-.7794083-2.0087278-1.1264202-2.5505917-.9512722-3.8258876-2.3447929-3.8258876-4.1783727 0-1.1964793.4477219-2.1784024 1.3409763-2.9435799.8910651-.7651775 2.0798817-1.147219 3.5664497-1.147219 1.3256509 0 2.4268935.2298817 3.3048225.6907397l-.5834615 1.9025444c-.8210059-.4466273-1.7492899-.6699409-2.7881361-.6699409-.8210059 0-1.4624852.2014202-1.9222485.6053551-.3886095.3601479-.5834616.7991124-.5834616 1.3190828 0 .5757988.222219 1.0519823.6699409 1.4252663.3886094.3470118 1.0946745.7213905 2.1181952 1.1253254 1.2534024.504645 2.1740237 1.0946746 2.7662426 1.7711835.5911243.6776035.8855918 1.5215976.8855918 2.5297928"/><path d="m104.090414 25.7336095h-2.572485v5.1000887c0 1.2971894.453195 1.9452367 1.361775 1.9452367.417071 0 .764083-.0361242 1.037752-.1072781l.063491 1.7722781c-.459764.1718639-1.064024.2583432-1.814971.2583432-.921716 0-1.642012-.2813314-2.161982-.8418047-.5166863-.5626627-.7783135-1.5062722-.7783135-2.8319231v-5.2949408h-1.5325444v-1.7514793h1.5325444v-1.9233432l2.2922485-.6918343v2.6151775h2.572485z"/><path d="m113.275828 29.223432c0-.9676924-.207988-1.7985503-.627248-2.492574-.48932-.8385207-1.188817-1.2566864-2.095207-1.2566864-.938136 0-1.650769.4181657-2.140089 1.2566864-.41926.6940237-.626154 1.5380177-.626154 2.5363609 0 .968787.206894 1.799645.626154 2.492574.504645.837426 1.21071 1.2566864 2.11929 1.2566864.891065 0 1.590562-.4258284 2.095207-1.2785799.431302-.7071598.648047-1.5467751.648047-2.5144674zm2.421421-.0755326c0 1.614645-.460858 2.9402959-1.382574 3.9769527-.966598 1.066213-2.249557 1.5993195-3.848876 1.5993195-1.541302 0-2.768432-.511213-3.68358-1.5347337-.915148-1.0224261-1.372722-2.3130474-1.372722-3.8685799 0-1.6277811.47071-2.9610947 1.415414-3.9977515.942515-1.0377515 2.214527-1.5566272 3.813846-1.5566272 1.542397 0 2.781568.511213 3.71861 1.5347337.893254.9939645 1.339882 2.2758284 1.339882 3.8466864z"/><path d="m123.283343 26.034645c-.230976-.0426923-.476183-.0634912-.735621-.0634912-.821006 0-1.455917.3097929-1.902544.9293787-.389705.5473373-.583462 1.2391716-.583462 2.0744083v5.5116864h-2.332752l.020799-7.1963905c0-1.2118047-.029556-2.314142-.087574-3.3081065h2.033906l.085384 2.0098225h.063491c.246302-.6907397.636006-1.2468344 1.168018-1.6628107.518876-.3754734 1.081539-.5626627 1.686894-.5626627.215651 0 .410503.0153254.583461.0426923z"/><path d="m131.495592 28.1320414c.015325-.6918343-.136835-1.2884319-.453196-1.7941716-.403934-.6480473-1.024615-.972071-1.859852-.972071-.762988 0-1.383668.316361-1.857662.9512722-.389704.504645-.620681 1.11-.69074 1.8149704zm2.225473.605355c0 .4181657-.027367.7706509-.085385 1.0585503h-7.001538c.027367 1.0377515.365621 1.8313906 1.014763 2.3787279.59003.4893195 1.354113.7345266 2.290059.7345266 1.036657 0 1.982456-.1663905 2.833018-.4980769l.365622 1.621213c-.993965.4323964-2.167456.649142-3.521568.649142-1.628876 0-2.907456-.4794675-3.837929-1.4384024-.92719-.9578402-1.393521-2.2440828-1.393521-3.8576331 0-1.5850888.431302-2.9041716 1.298284-3.9550592.90639-1.1242308 2.131331-1.6857988 3.672633-1.6857988 1.513935 0 2.660059.561568 3.438373 1.6857988.617396.8932545.927189 1.9966864.927189 3.3070118z"/><path d="m52.4841716 10.9883432c0-.8352367-.2211243-1.47562131-.6644675-1.92224853-.4422485-.44553254-1.0881065-.66884615-1.9375739-.66884615-.3612426 0-.6699409.02517752-.9239053.07443787v5.35186391c.141213.0218935.3995562.0317456.7750295.0317456.877929 0 1.5555326-.2441125 2.0339054-.7323373.4772781-.4882249.7170118-1.1997633.7170118-2.1346154zm1.2096154-.0317456c0 1.288432-.3853255 2.2583136-1.157071 2.909645-.7159172.6009763-1.7306805.9020118-3.047574.9020118-.6513313 0-1.21071-.0284615-1.6781361-.0842899v-7.04094675c.6097337-.09852071 1.2665385-.14778106 1.9758876-.14778106 1.2523077 0 2.1981065.27257396 2.8352071.81772189.7137278.6152071 1.0716864 1.49642012 1.0716864 2.64363902z"/><path d="m58.917574 12.119142c0-.4750887-.1028994-.8834024-.3086983-1.2238461-.2397337-.4126923-.5834615-.6184912-1.028994-.6184912-.460858 0-.8111539.2057989-1.0519823.6184912-.2047041.3404437-.3076035.7553254-.3076035 1.2446449 0 .4761835.1028994.8844971.3076035 1.2260355.2484911.410503.5944083.6163018 1.0410355.6163018.4389645 0 .7815976-.2090828 1.0300888-.6272485.2123668-.3481065.3185503-.7597042.3185503-1.2358876zm1.1899112-.0372189c0 .793639-.2265976 1.4438757-.6797929 1.9539941-.4750887.5243491-1.1045266.7859763-1.890503.7859763-.7575147 0-1.3606804-.2506805-1.8105917-.7542308-.4488165-.5024556-.6743195-1.1362722-.6743195-1.900355 0-.8002071.2309763-1.4548225.6951183-1.9649408.4641421-.51011838 1.0881066-.76408288 1.8740829-.76408288.7586095 0 1.3661538.25177515 1.8270118.75423078.4378698.4882248.6589941 1.1187574.6589941 1.8894083z"/><path d="m68.7072485 9.54446746-1.6146449 5.16029584h-1.0497929l-.6699409-2.2407988c-.1696745-.5593787-.3076035-1.1143787-.4148816-1.6671894h-.0197042c-.0996154.5670415-.2375444 1.1231361-.4148816 1.6671894l-.7115385 2.2407988h-1.0618343l-1.5183136-5.16029584h1.1789645l.5834615 2.45207104c.141213.5812722.2583432 1.1329881.3513905 1.6573372h.0197042c.0853846-.4313017.2265976-.9808284.4258284-1.6463905l.7323373-2.46301774h.9337574l.7016864 2.41047334c.1696745.5878403.3076035 1.153787.4137869 1.6989349h.0317456c.0777219-.5309171.1948521-1.0968639.3513905-1.6989349l.6261539-2.41047334z"/><path d="m74.6546154 14.7047633h-1.147219v-2.9556213c0-.9107692-.3459171-1.3661538-1.0399408-1.3661538-.3404438 0-.6163018.1258875-.8286686.376568-.2123669.2506805-.3185503.5451479-.3185503.8844971v3.06071h-1.1472189v-3.6846745c0-.4531953-.0142308-.9447042-.0415977-1.47562134h1.0081953l.053639.80677514h.0317456c.1335503-.2506805.3327811-.45866864.5944083-.62286982.3108876-.1937574.6589941-.29008876 1.0399408-.29008876.4816568 0 .8823077.15544379 1.200858.46742604.3962722.38204144.5944083.95127214.5944083 1.70878694z"/><path d="m76.6721006 14.7047633h1.1461243v-7.52807691h-1.1461243z"/><path d="m83.3813609 12.119142c0-.4750887-.1028994-.8834024-.3076035-1.2238461-.2397337-.4126923-.5845562-.6184912-1.0289941-.6184912-.4619526 0-.8122485.2057989-1.0519822.6184912-.2047042.3404437-.3076036.7553254-.3076036 1.2446449 0 .4761835.1028994.8844971.3076036 1.2260355.2484911.410503.5944082.6163018 1.0410355.6163018.4389645 0 .7805029-.2090828 1.0289941-.6272485.2134615-.3481065.3185502-.7597042.3185502-1.2358876zm1.191006-.0372189c0 .793639-.2265977 1.4438757-.6797929 1.9539941-.4750888.5243491-1.1056213.7859763-1.890503.7859763-.7586095 0-1.3617751-.2506805-1.8105917-.7542308-.4488166-.5024556-.6732249-1.1362722-.6732249-1.900355 0-.8002071.2309764-1.4548225.6940237-1.9649408.464142-.51011838 1.0892012-.76408288 1.8729882-.76408288.7597041 0 1.3661538.25177515 1.8281065.75423078.4389645.4882248.6589941 1.1187574.6589941 1.8894083z"/><path d="m88.9335503 12.9313905v-.7958284c-1.2654438-.0218935-1.8981657.3251184-1.8981657 1.0399409 0 .2692899.0722485.47071.2200296.605355s.3360651.2014201.5604734.2014201c.2517751 0 .4871302-.0788166.7005917-.238639.2167456-.1587279.3492012-.3623373.3984615-.6097338.0120414-.0569231.0186095-.1247929.0186095-.2025148zm1.1910059 1.7733728h-1.0300887l-.0864793-.5944083h-.0317456c-.3524852.4739941-.8549408.7115385-1.5073669.7115385-.4871301 0-.8801183-.1554438-1.1778698-.467426-.2692899-.2835208-.4039349-.6338166-.4039349-1.0508876 0-.6305326.2627219-1.1110947.7914497-1.4449704.5276331-.3316864 1.2698225-.4947929 2.2254734-.4882249v-.0952367c0-.6797929-.3568639-1.019142-1.0716864-1.019142-.5090237 0-.9578402.1269823-1.3442604.3820414l-.2331656-.75423073c.4783727-.29665681 1.0705917-.44553255 1.7700887-.44553255 1.3486391 0 2.0251479.71153848 2.0251479 2.13461538v1.900355c0 .5166864.0251776.9271894.0744379 1.2315089z"/><path d="m95.4545266 12.5285503v-.8604142c0-.1488757-.0109467-.2692899-.0317455-.3612426-.0645858-.275858-.2036095-.507929-.4148817-.6951184-.2134615-.188284-.4707101-.2813313-.7673669-.2813313-.4280177 0-.7629881.1696745-1.0092899.5090237-.2441124.3404437-.3678106.7750295-.3678106 1.3059467 0 .5101183.1171301.9239053.3524852 1.2424556.2484911.3393491.5834615.5101184 1.0027219.5101184.376568 0 .6776035-.1423077.9063905-.4247338.2211242-.2616272.329497-.5768935.329497-.9447041zm1.1888166 2.176213h-1.0180473l-.0525444-.8286686h-.0328403c-.3251183.6305325-.877929.9457988-1.6562426.9457988-.6228698 0-1.1395562-.2441124-1.5500591-.7323373-.410503-.4893195-.6163018-1.1220414-.6163018-1.9014497 0-.8352367.2222189-1.5117456.6688461-2.0273373.4323965-.48165677.962219-.72248518 1.5938462-.72248518.6918343 0 1.1778698.23316568 1.4537278.70059168h.0207988v-2.96218931h1.1483136v6.13784021c0 .5024556.0131361.965503.040503 1.3902367z"/><path d="m105.266095 12.119142c0-.4750887-.1029-.8834024-.307604-1.2238461-.241923-.4126923-.583461-.6184912-1.031183-.6184912-.458669 0-.810059.2057989-1.051983.6184912-.204704.3404437-.307603.7553254-.307603 1.2446449 0 .4761835.102899.8844971.307603 1.2260355.248492.410503.594409.6163018 1.042131.6163018.437869 0 .782692-.2090828 1.030088-.6272485.211273-.3481065.318551-.7597042.318551-1.2358876zm1.188816-.0372189c0 .793639-.226597 1.4438757-.679793 1.9539941-.475088.5243491-1.103432.7859763-1.890503.7859763-.75642 0-1.359585-.2506805-1.810591-.7542308-.448817-.5024556-.673225-1.1362722-.673225-1.900355 0-.8002071.230976-1.4548225.695118-1.9649408.463047-.51011838 1.088107-.76408288 1.875178-.76408288.75642 0 1.366154.25177515 1.824822.75423078.438965.4882248.658994 1.1187574.658994 1.8894083z"/><path d="m112.623402 14.7047633h-1.146124v-2.9556213c0-.9107692-.345917-1.3661538-1.041035-1.3661538-.340444 0-.616302.1258875-.827574.376568-.211273.2506805-.318551.5451479-.318551.8844971v3.06071h-1.148313v-3.6846745c0-.4531953-.013136-.9447042-.040503-1.47562134h1.0071l.053639.80677514h.031746c.134645-.2506805.333876-.45866864.594408-.62286982.311983-.1937574.658994-.29008876 1.041036-.29008876.481657 0 .881213.15544379 1.199763.46742604.397367.38204144.594408.95127214.594408 1.70878694z"/><path d="m120.344142 10.403787h-1.264349v2.5068047c0 .6371006.224408.9556509.669941.9556509.204704 0 .375473-.0175148.510118-.053639l.030651.8713609c-.226598.0842899-.524349.1269822-.89216.1269822-.453195 0-.80568-.1379289-1.059645-.4137869-.257248-.2769527-.383136-.74-.383136-1.3913314v-2.6020414h-.755325v-.85931954h.755325v-.94579882l1.124231-.33934911v1.28514793h1.264349z"/><path d="m126.417396 14.7047633h-1.147218v-2.9337278c0-.925-.347012-1.3880473-1.039941-1.3880473-.532012 0-.895444.2681952-1.094675.8056804-.033935.1127515-.052544.2506805-.052544.4126923v3.1034024h-1.146125v-7.52807691h1.146125v3.10997041h.020799c.361242-.56594674.879023-.84837278 1.550059-.84837278.475088 0 .868077.15544379 1.180059.46742604.389704.38860944.583461.96659764.583461 1.73068044z"/><path d="m131.587544 11.5827515c.008758-.3393491-.066775-.6338166-.222219-.881213-.19923-.3185503-.502455-.4772781-.912958-.4772781-.374379 0-.679793.1554437-.912959.467426-.190473.2473964-.303225.5451479-.340444.8910651zm1.094675.2977515c0 .2057988-.015326.3787574-.042692.5199704h-3.440563c.015326.5101183.179527.8987278.498077 1.1680177.291184.2408284.667752.3612426 1.127515.3612426.509024 0 .972071-.0810059 1.391332-.2441124l.179526.7958284c-.489319.2123669-1.064023.319645-1.731775.319645-.799112 0-1.427456-.2353551-1.88284-.7071598-.457574-.47071-.684172-1.1023373-.684172-1.8948816 0-.7783137.211272-1.426361.637101-1.9430474.444438-.55281063 1.045414-.82866862 1.804023-.82866862.74219 0 1.305947.27585799 1.686894.82866862.305414.4389645.457574.9808284.457574 1.6244971z"/></g></g></svg>