<svg height="27" viewBox="0 0 51 27" width="51" xmlns="http://www.w3.org/2000/svg" xmlns:xlink="http://www.w3.org/1999/xlink"><mask id="a" fill="#fff"><path d="m0 .03338234h20.9502696v19.16661766h-20.9502696z" fill="#fff" fill-rule="evenodd"/></mask><g fill="#231f20" fill-rule="evenodd" opacity=".3"><path d="m6.40828696 19.2c-1.30534783-.2982559-2.16896522-1.1712596-2.94505218-2.1631006-1.63586956-2.0907727-2.75696521-4.4095006-3.22986087-7.0118758-.36296521-1.99727702-.36643478-3.97678509.45244348-5.88390559.91164348-2.12303105 2.48372174-3.48521739 4.82841739-3.93218385.97665218-.18615652 1.91507826-.04835776 2.83457392.28513789.43655652.15831056.87889565.30481491 1.30461739.48793043.67449561.29020622 1.32397391.2572323 2.00084351-.01162732.7116261-.28263354 1.4300087-.58059131 2.1745652-.7461764 2.4880435-.55328199 4.6061826.0903354 6.2816174 2.01319751.0784.08997764.1461478.18895901.2194348.28454162-3.9982174 2.48920248-3.5319566 8.18182361.6203826 9.99544841-.3389826 1.0531379-.7826 2.063523-1.3947653 2.9918013-.4392956.6659776-.9120695 1.3137093-1.4098 1.9390211-.728913.9157565-1.610426 1.6209689-2.8504608 1.7517913h-.0608696c-.9108522-.0301118-1.7149391-.4125019-2.5449565-.7219081-1.0997913-.4099379-2.2129739-.4043329-3.32311305-.0091826-.69987826.2491826-1.40377392.4877516-2.10584348.7310907z" mask="url(#a)" transform="translate(0 7)"/><path d="m15.9966462 0c.0286066 1.20263634-.1210544 2.37277479-.6319248 3.47084648-.9595741 2.06279488-2.5256063 3.26878815-4.7666126 3.51041535-.103751.01121356-.2101533-.00049997-.313346.01364197-.2507605.03442634-.2842511-.10927863-.2847628-.3189079-.00346528-1.43504985.3844669-2.74396502 1.2237541-3.89567609 1.0809076-1.48326102 2.5081633-2.40820107 4.301094-2.72039512.0430493-.00749952.0820518-.03935459.1229382-.05992469z"/><path d="m37 10.0145724h3.2622373c1.2384337 4.2160062 2.4764475 8.4305538 3.7143564 12.6451015.0188405.0001122.037576.0002244.056364.0003927.1267403-.4192109.255055-.837917.380011-1.257801 1.1036639-3.7079942 2.2084298-7.4156517 3.3054287-11.1258897.0592504-.2005459.1297842-.27958616.3375543-.2763759.8919052.0142358 1.7840729.0061579 2.6761356.0061579h.2679127c-.1534528.4612273-.2952025.8897503-.4385266 1.3176562-1.6059543 4.7970561-3.2135355 9.5934391-4.8136645 14.392683-.0691167.2072775-.1469452.2867665-.3637944.2835029-.9960265-.0153605-1.9923154-.0068338-2.9977884-.0068338-1.7943066-5.3227947-3.583785-10.6315653-5.3862261-15.9785938"/><path d="m27.3623862 12.4313769h-2.3623862v-2.65442901h2.3970803v-3.77694789h3.4338823v3.76513907h3.1552662v2.60759113h-3.1280193c-.0060877.1252984-.0149533.2243108-.0150124.3234367-.0007092 2.8471739-.0033098 5.6944613.0038418 8.5416352.0007092.2903379.0330982.586637.0994129.869708.1613539.6883178.6419875 1.0880576 1.355609 1.1582292.5526813.0543887 1.1158832.0108437 1.6979392.0108437v2.576593c-.3530872.0389463-.711612.0916318-1.0722054.1156469-.9466094.0631317-1.8909728.0427502-2.8172504-.1772458-1.5446236-.3668682-2.4013358-1.2646221-2.6286497-2.7795003-.0768943-.5127751-.1124749-1.0353721-.1143662-1.553711-.0106387-2.8849848-.0051421-5.7700831-.0051421-8.6551247z"/></g></svg>