<svg height="24" viewBox="0 0 19 24" width="19" xmlns="http://www.w3.org/2000/svg" xmlns:xlink="http://www.w3.org/1999/xlink"><mask id="a" fill="#fff"><path d="m0 1h19v24h-19z" fill="#fff" fill-rule="evenodd"/></mask><path d="m12.9297508 4.8301826c.8157282-1.0126537 1.3651628-2.42681365 1.2138844-3.8301826-1.1743126.04688046-2.5943711.80484834-3.4362629 1.81714383-.75447675.89820627-1.41709813 2.33538109-1.23743593 3.71260086 1.30987553.10374596 2.64443443-.68458005 3.45981443-1.69956209m1.1858924 1.96772547c-1.9213452-.14561151-3.5505814 1.10408626-4.45973228 1.10408626-.92216732 0-2.34448951-1.07260874-3.85348663-1.04413122-1.97998462.03147752-3.80529519 1.1843696-4.82610913 3.00993132-2.05725635 3.67306367-.52514301 9.11410717 1.47834963 12.09256097.98011024 1.4579508 2.14841522 3.0979609 3.68392416 3.0380506 1.47834963-.0595521 2.03675214-.9842657 3.82288268-.9842657 1.78499867 0 2.28885387.9842657 3.85161467.9531016 1.5900127-.028791 2.5981585-1.4840105 3.5707374-2.950021 1.1261647-1.6892189 1.5885761-3.324617 1.6161763-3.413363-.0354362-.0126716-3.10049-1.2243098-3.1310939-4.8559109-.0276437-3.0353193 2.4094848-4.4959567 2.5207996-4.566255-1.3838387-2.09488927-3.5214576-2.32615724-4.2740625-2.38378393" fill-rule="evenodd" mask="url(#a)" opacity=".3" transform="translate(0 -1)"/></svg>