<svg height="24" viewBox="0 0 109 24" width="109" xmlns="http://www.w3.org/2000/svg" xmlns:xlink="http://www.w3.org/1999/xlink"><mask id="a" fill="#fff"><path d="m.0106003.03324914h85.9651444v17.94887466h-85.9651444z" fill="#fff" fill-rule="evenodd"/></mask><mask id="b" fill="#fff"><path d="m.00001201.04439436h18.97594889v23.81924204h-18.97594889z" fill="#fff" fill-rule="evenodd"/></mask><g fill="#000" fill-rule="evenodd" opacity=".3"><path d="m38.2783874 3.31778477h5.0708759v14.37253563h3.5221816v-14.37253563h5.0828083v-3.00414251h-13.6758658zm44.1495015-3.00414251v6.97546437h-6.9683865v-6.97546437h-3.5348516v17.37667814h3.5348516v-7.4091892h6.9683865v7.4091892h3.5478688v-17.37667814zm-53.7261352 10.32417204 1.9455439-6.9003686h.0376196l1.9154308 6.9003686zm-.027553-10.32417204-5.495669 17.37628014h3.5344611l1.2341131-4.3792187h5.3929202l1.2154985 4.3792187h3.7846509l-5.4829556-17.37628014zm32.7468214-.28039312c-4.4956912 0-7.181 2.96619656-7.181 7.94304177v2.10069289c0 5.0285012 2.6730293 7.90514 7.1694581 7.90514 4.5087518 0 6.7562069-2.8007469 6.7562069-5.9319951v-.3179852h-3.3851978c0 1.7944717-.874449 3.1949779-3.3103057 3.1949779-2.4470081 0-3.6465389-1.5409239-3.6465389-4.8501376v-2.10069289c0-3.27122359 1.2114198-4.91351351 3.6219798-4.91351351 2.2605157 0 3.3345177 1.52770024 3.3345177 3.24623587h3.3848072v-.17831941c.0007377-3.38590172-2.5225509-6.09744472-6.7439273-6.09744472zm-45.049334 12.69229976h-.0498557l-3.0478799-12.41190664h-3.58396976l-3.03525327 12.41190664h-.0498991l-2.82224924-12.41190664h-3.77198083l4.74622806 17.37667814h3.55862966l3.13539858-11.8776118h.0625691l3.1346176 11.8776118h3.5847074l4.7336014-17.37667814h-3.7716337z" mask="url(#a)" transform="translate(23 6)"/><path d="m12.9133957 3.84572499c.8146956-1.00502794 1.3634347-2.4085386 1.2123478-3.80133952-1.1728261.04652743-2.591087.79878746-3.4319131 1.80345988-.7535217.89144236-1.41530431 2.31779457-1.23586953 3.68464322 1.30821743.10296471 2.64108693-.67942483 3.45543483-1.68676358m1.1843913 1.95290756c-1.9189131-.14451498-3.546087 1.09577197-4.454087 1.09577197-.921 0-2.34152174-1.06453149-3.8486087-1.03626841-1.97747826.03124048-3.80047826 1.17545074-4.82 2.98726511-2.05465217 3.64540378-.52447826 9.04547358 1.47647827 12.00149818.97886956 1.4469719 2.14569565 3.0746318 3.67926086 3.0151727 1.47647827-.0591036 2.03417392-.9768537 3.81804348-.9768537 1.78273909 0 2.28595649.9768537 3.84673909.9459243 1.588-.0285741 2.5948696-1.4728352 3.5662174-2.927806 1.1247392-1.6764982 1.5865653-3.299581 1.6141305-3.3876587-.0353913-.0125762-3.0965652-1.2150901-3.1271305-4.8193436-.0276087-3.01246188 2.4064348-4.46210002 2.5176087-4.53186894-1.3820869-2.07911376-3.517-2.30864017-4.2686521-2.36583291" mask="url(#b)"/></g></svg>