<svg height="18" viewBox="0 0 10 18" width="10" xmlns="http://www.w3.org/2000/svg" xmlns:xlink="http://www.w3.org/1999/xlink"><mask id="a" fill="#fff"><path d="m0 .862h9.74005v18.0148h-9.74005z" fill="#fff" fill-rule="evenodd"/></mask><path d="m2.7163 11.0318h-.196c-.685 0-1.369 0-2.053 0-.335-.001-.466-.13-.467-.462-.001-.921 0-1.841 0-2.762.001-.333.142-.472.479-.472.684-.001 1.368 0 2.052 0h.185v-.163c0-.611-.001-1.221 0-1.831.003-.889.162-1.742.615-2.52.56-.963 1.402-1.546 2.473-1.812.467-.117.941-.151 1.42-.14817948.679.00517948 1.359.00217948 2.038.00217948.337 0 .477.137.477.472.001.846.001 1.693 0 2.54 0 .343-.13.47-.472.473-.605.007-1.211.004-1.815.029-.322.013-.631.113-.786.432-.076.156-.132.336-.136.507-.015.664-.005 1.328-.005 2.019h.169 2.436c.367 0 .497.129.497.495 0 .911 0 1.822-.001 2.732 0 .347-.121.469-.472.469-.817 0-1.634 0-2.451 0h-.184v.196 7.132c0 .394-.123.517-.52.517h-2.776c-.389 0-.507-.119-.507-.514v-7.117z" fill="#231f20" fill-rule="evenodd" mask="url(#a)" transform="translate(0 -.8618)"/></svg>