<svg height="65" viewBox="0 0 35 65" width="35" xmlns="http://www.w3.org/2000/svg"><path d="m30.4837973 38.300292c0 7.1328381-5.824622 12.9359166-12.9839401 12.9359166s-12.98365446-5.8030785-12.98365446-12.9359166c0-7.132838 5.82433636-12.9359166 12.98365446-12.9359166s12.9839401 5.8030786 12.9839401 12.9359166m4.5162027-22.300292h-4.5162027c0 2.6825686-2.1906954 4.8651613-4.8835084 4.8651613h-8.1004317c-9.64962748 0-17.4998572 7.8211942-17.4998572 17.4351307 0 6.5036709 3.59508246 12.1832494 8.90701888 15.1794056-1.36725668.7705946-2.6405448 1.7264393-3.78130585 2.8632656l3.19321696 3.1814063c2.45232211-2.4432517 5.71265941-3.7889467 9.18092721-3.7889467s6.7286051 1.345695 9.1812128 3.7889467c2.4523221 2.4432517 3.8027273 5.6915301 3.8027273 9.1469698 0 3.4551552-1.3506908 6.7034336-3.8027273 9.1469699l3.193217 3.1816908c3.3051795-3.2929547 5.125713-7.6715144 5.125713-12.3286607 0-4.6571462-1.8205335-9.0351368-5.125713-12.3283761-1.1410467-1.1368263-2.4143348-2.092671-3.7815915-2.8632656 5.3119364-2.9961562 8.9073045-8.6757347 8.9073045-15.1794056 0-5.4026994-2.4797415-10.2394044-6.3644413-13.4398764 3.6976196-1.2606109 6.3644413-4.7550356 6.3644413-8.8604156" fill="#1e1e28" fill-rule="evenodd" transform="translate(0 -16)"/></svg>