<svg height="19" viewBox="0 0 19 19" width="19" xmlns="http://www.w3.org/2000/svg" xmlns:xlink="http://www.w3.org/1999/xlink"><mask id="a" fill="#fff"><path d="m.4684.8994h18.1v18.1006h-18.1z" fill="#fff" fill-rule="evenodd"/></mask><g fill="#231f20" fill-rule="evenodd" transform="translate(0 -.8618)"><path d="m1.8604 9.9454v3.767c0 .321.035.638.11.951.409 1.697 1.923 2.937 3.725 2.942 2.524.007 5.049.002 7.573.002.289 0 .575-.025.859-.087.875-.191 1.602-.629 2.171-1.32.594-.721.878-1.557.878-2.488.001-2.502.001-5.004 0-7.506 0-.255-.018-.508-.065-.759-.143-.769-.484-1.439-1.033-1.995-.771-.78-1.713-1.16-2.807-1.161-2.502-.001-5.004 0-7.506 0-.318 0-.633.027-.941.104-1.154.292-2.009.966-2.555 2.024-.284.55-.409 1.141-.409 1.759zm11.731 9.055h-8.134c-.018-.004-.036-.009-.055-.011-.159-.016-.319-.025-.478-.049-.431-.066-.849-.182-1.249-.356-1.109-.482-1.963-1.25-2.553-2.305-.358-.639-.568-1.326-.632-2.056-.006-.067-.015-.134-.022-.201v-8.145c.003-.019.009-.037.01-.056.024-.417.099-.824.225-1.222.317-1.007.883-1.846 1.699-2.513.827-.678 1.776-1.068 2.843-1.165.067-.006.134-.015.2-.022h8.135c.069.007.137.016.207.022.429.035.847.123 1.253.269 1.203.431 2.135 1.194 2.794 2.289.408.677.644 1.413.713 2.202.006.065.015.13.021.196v8.145c-.006.065-.015.13-.021.195-.038.451-.134.888-.291 1.312-.394 1.07-1.063 1.929-2.006 2.57-.744.506-1.567.798-2.464.879-.065.006-.13.014-.195.022" mask="url(#a)"/><path d="m9.5191 6.4698c-1.931 0-3.482 1.551-3.48000193 3.481.00100193 1.929 1.54600193 3.475 3.47600193 3.4780077 1.928.0039923 3.48-1.5450077 3.4830077-3.4780077.0039923-1.928-1.5480077-3.481-3.4790077-3.481m.001-1.395c2.681 0 4.873 2.192 4.874 4.873 0 2.688-2.195 4.877-4.888 4.8760003-2.673 0-4.864-2.2000003-4.86200137-4.8780003.00200137-2.682 2.19300137-4.871 4.87600137-4.871"/><path d="m14.7422 3.68319839c.577 0 1.044.47000161 1.0430016 1.04800161-.0010016.576-.4730016 1.044-1.0500016 1.0430016-.575-.0020016-1.042-.4740016-1.0410016-1.0520016.0020016-.574.4720016-1.04 1.0480016-1.03900161"/></g></svg>