<svg height="23" viewBox="0 0 71 23" width="71" xmlns="http://www.w3.org/2000/svg" xmlns:xlink="http://www.w3.org/1999/xlink"><mask id="a" fill="#fff"><path d="m.16487742.02121493h86.78013098v40.81751787h-86.78013098z" fill="#fff" fill-rule="evenodd"/></mask><g fill="#000" fill-rule="nonzero" mask="url(#a)" opacity=".3" transform="matrix(1 0 0 -1 -7.999645 32.969511)"><path d="m11.1332023 14.3200751c0 1.9915512-1.60159068 3.5953996-3.55997398 3.5953996h-1.76540779v-7.1589768h1.76540779c1.9583833 0 3.55997398 1.6049092 3.55997398 3.5635772m8.0307499-14.27181114h-6.480584l-5.14512994 7.14306562h-1.73041773v-7.1276848h-5.71133278v21.41328572h8.18184339c4.71676666 0 8.56673406-3.2087576 8.56673406-7.1568554 0-2.4078941-1.4759445-4.55855722-3.7222006-5.87441301z" transform="translate(8.420412 10.539522)"/><path d="m8.80793131 13.3788778c-1.50828383 0-2.79125286-2.0509529-2.79125286-4.58984923 0-2.53889628 1.28296903-4.59250113 2.79125286-4.59250113 1.54327389 0 2.82412229 2.05360485 2.82412229 4.59250113 0 2.53889633-1.2808484 4.58984923-2.82412229 4.58984923m8.79098859-4.58984923c0-4.85026248-3.9427441-8.73418508-8.79098859-8.73418508-4.84665406 0-8.76023974 3.8839226-8.76023974 8.73418508 0 4.84654983 3.91358568 8.73259393 8.76023974 8.73259393 4.84824449 0 8.79098859-3.8860441 8.79098859-8.73259393" transform="translate(25.21752 10.195679)"/><path d="m12.3143377 17.296902-6.57919238-6.5808701v6.6026154h-5.71027247v-16.78047621h5.71027247v6.80680904l6.86865568-6.80680904h7.1872773l-8.7284306 8.73312434 7.2296895 7.23004677v-9.95828627c0-3.30634624 1.9875417-6.35758299 6.9927114-6.35758299 2.3761434 0 4.5566606 1.34820856 5.6164354 2.56806681l2.5675285-2.21536866h1.2188206v16.75873091h-5.7102725v-8.73100287-2.11937112c-.6430749-1.12279996-1.5390326-1.82872663-2.9237909-1.82872663-1.4049041 0-2.0495696.83321623-2.0495696 3.49834132v.7032748 8.4774845z" transform="translate(43.904834 10.065208)"/></g></svg>