<svg height="16" viewBox="0 0 21 16" width="21" xmlns="http://www.w3.org/2000/svg"><path d="m34.7656 16.171c2.144.193 4.082-.336 5.838-1.656-1.836-.158-3.06-1.078-3.732-2.782.317.013.6.043.881.033.284-.01.565-.06.851-.116-.911-.247-1.673-.711-2.257-1.447-.585-.737-.874-1.576-.873-2.552.562.287 1.126.463 1.789.49-.874-.642-1.436-1.441-1.659-2.459-.22-1.011-.068-1.967.442-2.886 2.175 2.557 4.917 3.959 8.231 4.19-.012-.424-.067-.832-.029-1.232.154-1.628.996-2.802 2.508-3.401 1.581-.628 3.034-.306 4.291.849.095.087.174.111.3.081.759-.179 1.485-.442 2.166-.825.054-.031.111-.058.206-.105-.309.937-.87 1.631-1.644 2.198.234-.043.471-.076.703-.13.247-.057.492-.126.734-.204.233-.074.462-.165.749-.269-.172.231-.29.437-.452.6-.455.46-.924.909-1.399 1.35-.098.091-.144.169-.142.304.051 2.389-.579 4.594-1.864 6.602-1.669 2.608-4.018 4.274-7.057 4.909-2.488.52-4.912.278-7.237-.777-.466-.212-.91-.473-1.364-.711.007-.018.013-.036.02-.054" fill="#231f20" fill-rule="evenodd" transform="translate(-34 -2)"/></svg>